<svg xmlns="http://www.w3.org/2000/svg" version="1.1" xmlns:xlink="http://www.w3.org/1999/xlink" xmlns:svgjs="http://svgjs.com/svgjs" width="512" height="512" x="0" y="0" viewBox="0 0 512 512" style="enable-background:new 0 0 512 512" xml:space="preserve" class=""><g><g fill-rule="evenodd"><path fill="#ffffff" d="M395.623 50.836h-67.966v-4.4a15.977 15.977 0 0 0-15.96-15.96H288.76l-.859-2.843a33.118 33.118 0 0 0-63.309 0l-.859 2.842H200.8a15.982 15.982 0 0 0-15.96 15.96v4.4h-67.977A34.728 34.728 0 0 0 82.186 85.52v388.053a34.727 34.727 0 0 0 34.677 34.677h278.76a34.723 34.723 0 0 0 34.683-34.677V85.52a34.724 34.724 0 0 0-34.683-34.684z" data-original="#d1e7ff" class=""></path><path fill="#7219c0" d="M364.247 390.5a8 8 0 0 1-8 8h-31.5a8 8 0 0 1 0-16h31.5a8 8 0 0 1 8 7.994zm0-29.669a8 8 0 0 1-8 8h-53.308a8 8 0 1 1 0-16h53.307a8.007 8.007 0 0 1 8 8zm-66.9-95.977v24.032a8 8 0 0 0 8 7.994H329.4a25.332 25.332 0 1 1-32.047-32.026zm16-18.109v34.14H347.5a42.989 42.989 0 0 0-34.148-34.14zm-8 83.468a41.311 41.311 0 0 0 40.556-33.333h10.337a8 8 0 0 0 8-7.994 58.958 58.958 0 0 0-58.894-58.894 8 8 0 0 0-8 8v10.338a41.332 41.332 0 0 0 8 81.882zM194.474 152.429v10.044a6.073 6.073 0 0 1 0-10.044zm18.674 36.426a6.614 6.614 0 0 1-2.672 5.022V183.84a6.612 6.612 0 0 1 2.672 5.015zm-18.674-8.794v13.816a6.641 6.641 0 0 1-2.658-5.022 8 8 0 0 0-16 0c0 10.6 7.866 19.6 18.66 22.624v.579a8 8 0 0 0 16 0v-.579c10.809-3.028 18.667-12.022 18.667-22.624 0-10.587-7.858-19.574-18.667-22.6v-13.826a6.612 6.612 0 0 1 2.672 5.022 8 8 0 1 0 16 0c0-10.6-7.858-19.589-18.667-22.618v-.585a8 8 0 1 0-16 0v.585c-10.794 3.029-18.66 12.016-18.66 22.618s7.866 19.588 18.66 22.61zm100.464-32.133a8 8 0 0 1 8-8h53.307a8 8 0 1 1 0 16h-53.306a8 8 0 0 1-8-8zm0 29.675a8 8 0 0 1 8-8h53.307a8 8 0 1 1 0 16h-53.306a8 8 0 0 1-8-7.994zm0 29.655a8 8 0 0 1 8-8h53.307a8 8 0 0 1 0 16h-53.306a8 8 0 0 1-8-8zM156.247 220.2h92.47a8 8 0 1 1 0 16h-92.47a8 8 0 1 1 0-16zm-8 37.67a8 8 0 0 1 8-8h92.47a8 8 0 1 1 0 16h-92.47a8.005 8.005 0 0 1-8-7.994zm0 29.661a8 8 0 0 1 8-8h92.47a8 8 0 1 1 0 16h-92.47a8 8 0 0 1-8-7.994zm154.05 123.9a8 8 0 0 0-8-7.994H185.616v-87.3a8 8 0 0 0-16 0v87.3h-13.369a8 8 0 1 0 0 16h13.366v13.373a8 8 0 0 0 16 0v-13.374h108.681a8 8 0 0 0 8-8zm-45.728-66.873a8 8 0 0 1 8-8h12.473a8 8 0 0 1 8 8v12.487a8 8 0 0 1-14.08 5.194L254.575 379.9a8.015 8.015 0 0 1-10.4 1.151l-19.96-13.724-20.815 21.284a8 8 0 0 1-11.438-11.18l25.511-26.1a8 8 0 0 1 10.259-.993l19.81 13.616 12.129-13.059a7.983 7.983 0 0 1-3.107-6.329zM418.3 473.572V85.52a22.709 22.709 0 0 0-22.681-22.682h-63.962v13h63.966a9.7 9.7 0 0 1 9.694 9.68v388.054a9.706 9.706 0 0 1-9.694 9.687h-278.76a9.7 9.7 0 0 1-9.68-9.687V85.52a9.692 9.692 0 0 1 9.68-9.68h63.973v-13h-63.973a22.712 22.712 0 0 0-22.674 22.68v388.052a22.7 22.7 0 0 0 22.674 22.675h278.76a22.7 22.7 0 0 0 22.677-22.675zM196.838 46.436a4.014 4.014 0 0 1 3.958-3.958h26.511a8 8 0 0 0 7.958-7.215 21.088 21.088 0 0 1 41.97-.015 8 8 0 0 0 7.958 7.23h26.5a4.01 4.01 0 0 1 3.958 3.958v44.191H196.838zm-8 60.194a8 8 0 0 1-8-8v-6.788h-57.65v375.415h266.127V91.842h-57.658v6.787a8 8 0 0 1-8 8zm206.785-59.794h-63.966v-.4a19.979 19.979 0 0 0-19.96-19.96H291.73a37.118 37.118 0 0 0-70.967 0H200.8a19.984 19.984 0 0 0-19.96 19.96v.4h-63.977A38.729 38.729 0 0 0 78.186 85.52v388.052a38.728 38.728 0 0 0 38.677 38.677h278.76a38.724 38.724 0 0 0 38.683-38.677V85.52a38.726 38.726 0 0 0-38.683-38.684z" data-original="#2e58ff" class=""></path></g></g></svg>