<svg xmlns="http://www.w3.org/2000/svg" version="1.1" xmlns:xlink="http://www.w3.org/1999/xlink" xmlns:svgjs="http://svgjs.com/svgjs" width="512" height="512" x="0" y="0" viewBox="0 0 511 512" style="enable-background:new 0 0 512 512" xml:space="preserve" class=""><g><path d="M240.746 271.61c-2.64 0-5.21-1.07-7.07-2.93-.461-.461-.88-.97-1.25-1.52a10.037 10.037 0 0 1-.918-1.73c-.25-.602-.442-1.23-.57-1.871-.133-.641-.204-1.301-.204-1.95s.07-1.308.203-1.949c.13-.64.32-1.27.57-1.883.25-.597.56-1.18.919-1.718.37-.551.789-1.059 1.25-1.52 2.32-2.32 5.77-3.39 9.02-2.738a9.95 9.95 0 0 1 1.87.566 9.913 9.913 0 0 1 4.489 3.692c.36.539.672 1.12.922 1.718.25.614.441 1.243.57 1.883s.2 1.3.2 1.95c0 2.628-1.071 5.21-2.93 7.07-.462.46-.973.879-1.52 1.25-.543.347-1.121.66-1.73.91-.602.25-1.231.45-1.872.57-.64.13-1.3.2-1.949.2zM143.008 478.5c-17.371 0-31.5-14.133-31.5-31.5s14.129-31.5 31.5-31.5c17.367 0 31.5 14.133 31.5 31.5s-14.133 31.5-31.5 31.5zm0-43c-6.344 0-11.5 5.16-11.5 11.5s5.156 11.5 11.5 11.5c6.34 0 11.5-5.16 11.5-11.5s-5.16-11.5-11.5-11.5zm0 0" fill="#7219c0" data-original="#000000" class=""></path><path d="M275.512 0H10.5C4.977 0 .5 4.477.5 10v263.852c0 17.843 14.516 32.359 32.36 32.359h34.59c2.296.52 10.41 6.094 20.437 19.8 9.574 13.09 13.187 23.231 13.008 25.794-3.125 19.574-7.645 36.332-11.63 51.117-4.734 17.547-8.82 32.703-8.82 46.52 0 34.492 28.067 62.558 62.563 62.558s62.558-28.066 62.558-62.559c0-13.789-4.086-28.941-8.812-46.484-3.992-14.812-8.52-31.598-11.633-51.129-.203-2.527 3.402-12.691 13.004-25.816 10.027-13.707 18.14-19.282 20.438-19.801h34.59c17.843 0 32.359-14.516 32.359-32.36V10c0-5.523-4.477-10-10-10zm-10 217.008H20.5v-93.156a31.284 31.284 0 0 0 11.3 2.097c4 0 7.825-.75 11.345-2.12v37.23c0 8.582 3.402 16.593 9.578 22.554 5.898 5.692 13.582 8.79 21.746 8.79.383 0 .765-.008 1.152-.02 12.57-.45 23.117-8.266 27.727-19.313 4.41 2.164 9.351 3.274 14.472 3.196 16.926-.344 30.696-14.63 30.696-31.844V20h12.656v84.332c0 5.523 4.476 10 10 10s10-4.477 10-10V20h12.082v45c0 5.523 4.48 10 10 10 5.523 0 10-4.477 10-10V20h14.336v84.332c0 5.523 4.476 10 10 10 5.52 0 10-4.477 10-10V20h17.922zM20.5 20h108.016v124.426c0 6.406-4.98 11.722-11.102 11.844-4.234.09-8.133-2.168-10.191-5.899a11.1 11.1 0 0 1-1.391-5.441c0-5.524-4.477-10-10-10s-10 4.476-10 10v15.617c0 6.32-4.898 11.637-10.922 11.848-3.105.136-6.062-1.016-8.297-3.172a11.244 11.244 0 0 1-3.468-8.164V94.605c0-5.52-4.477-10-10-10-5.524 0-10 4.48-10 10 0 6.258-5.09 11.344-11.344 11.344-3.028 0-5.875-1.18-8.012-3.32-2.129-2.137-3.297-4.977-3.289-8.024zm144.86 334.906c3.288 20.64 7.96 37.969 12.081 53.254 4.54 16.84 8.125 30.14 8.125 41.278 0 23.468-19.093 42.558-42.558 42.562-23.469-.004-42.563-19.094-42.563-42.563 0-11.164 3.586-24.464 8.13-41.308 4.12-15.274 8.788-32.59 12.077-53.223 2.309-14.492-13.304-37.402-22.93-48.695h90.563c-9.62 11.293-25.234 34.203-22.926 48.695zm100.152-81.054c0 6.816-5.543 12.359-12.36 12.359H32.86c-6.816 0-12.359-5.543-12.359-12.36v-2.242h181.246c5.52 0 10-4.476 10-10 0-5.52-4.48-10-10-10H20.5v-14.601h245.012zm0 0" fill="#7219c0" data-original="#000000" class=""></path></g></svg>