<svg xmlns="http://www.w3.org/2000/svg" version="1.1" xmlns:xlink="http://www.w3.org/1999/xlink" xmlns:svgjs="http://svgjs.com/svgjs" width="512" height="512" x="0" y="0" viewBox="0 0 512 512" style="enable-background:new 0 0 512 512" xml:space="preserve" class=""><g transform="matrix(1,0,0,1,0,0)"><defs><linearGradient id="a" x1="400.884" x2="115.321" y1="520.289" y2="-.628" gradientUnits="userSpaceOnUse"><stop stop-opacity="1" stop-color="#7219c0" offset="0"></stop><stop stop-opacity="1" stop-color="#7219c0" offset="0.154"></stop><stop stop-opacity="1" stop-color="#7219c0" offset="0.473"></stop><stop stop-opacity="1" stop-color="#7219c0" offset="0.926"></stop><stop stop-opacity="1" stop-color="#7219c0" offset="1"></stop></linearGradient><linearGradient xlink:href="#a" id="b" x1="269.721" x2="-15.842" y1="592.191" y2="71.275"></linearGradient><linearGradient xlink:href="#a" id="c" x1="395.619" x2="110.056" y1="523.175" y2="2.258"></linearGradient><linearGradient xlink:href="#a" id="d" x1="338.745" x2="53.182" y1="554.353" y2="33.436"></linearGradient><linearGradient xlink:href="#a" id="e" x1="287.853" x2="2.289" y1="582.252" y2="61.335"></linearGradient><linearGradient xlink:href="#a" id="f" x1="423.483" x2="138.04" y1="507.717" y2="-12.98"></linearGradient><linearGradient xlink:href="#a" id="g" x1="377.227" x2="91.664" y1="533.258" y2="12.341"></linearGradient><linearGradient xlink:href="#a" id="h" x1="497.689" x2="212.125" y1="467.221" y2="-53.696"></linearGradient><linearGradient xlink:href="#a" id="i" x1="558.932" x2="273.368" y1="433.648" y2="-87.269"></linearGradient><linearGradient xlink:href="#a" id="j" x1="427.52" x2="141.957" y1="505.687" y2="-15.23"></linearGradient><linearGradient xlink:href="#a" id="k" x1="372.834" x2="87.27" y1="535.666" y2="14.749"></linearGradient></defs><g data-name="7 Easy to Use"><path d="M422.495 8.514H89.505a51.053 51.053 0 0 0-50.99 51v98.46a6 6 0 0 0 12 0v-98.46a39.04 39.04 0 0 1 38.99-39h332.99a39.044 39.044 0 0 1 39 39v392.98a39.04 39.04 0 0 1-39 38.99H89.504a39.035 39.035 0 0 1-38.99-38.99v-247.72a6 6 0 0 0-12 0v247.72a51.048 51.048 0 0 0 50.99 50.99h332.99a51.053 51.053 0 0 0 51-50.99V59.514a51.058 51.058 0 0 0-51-51Z" class="cls-1" style="fill:url(#a)" fill=""></path><path d="M44.514 191.874a6 6 0 0 0 6-6v-9a6 6 0 0 0-12 0v9a6 6 0 0 0 6 6Z" class="cls-2" style="fill:url(#b)" fill=""></path><path d="M353.885 361.222a6 6 0 0 0 0-12h-43.928a9.267 9.267 0 0 0-9.257 9.257v93.485a9.267 9.267 0 0 0 9.257 9.258h43.928a6 6 0 0 0 0-12H312.7v-38h41.185a6 6 0 0 0 0-12H312.7v-38Z" class="cls-3" style="fill:url(#c)" fill=""></path><path d="M254.662 449.183a18.463 18.463 0 0 1-15.08-9.721 6 6 0 0 0-10.537 5.74 30.402 30.402 0 0 0 24.86 15.958c.645.04 1.284.06 1.922.06a31.076 31.076 0 0 0 3.699-61.872 33.508 33.508 0 0 0-2.907-.201 19.057 19.057 0 0 1 3.594-37.886 18.332 18.332 0 0 1 12.267 5.827 6 6 0 1 0 8.766-8.194 30.29 30.29 0 0 0-20.277-9.61 31.057 31.057 0 0 0-5.64 61.802 28.82 28.82 0 0 0 2.927.201 19.062 19.062 0 0 1-3.594 37.896Z" class="cls-4" style="fill:url(#d)" fill=""></path><path d="M161.928 350.223a6 6 0 0 0-8.317 1.68c-1.262 1.902-1.49 2.244-1.496 29.404-.002 12.114.078 28.01.238 47.247a32.947 32.947 0 0 0 65.893-.28v-73.052a6 6 0 0 0-12 0v73.053a20.947 20.947 0 0 1-41.893.18c-.494-59.15-.09-69.88.084-71.798a6.001 6.001 0 0 0-2.509-6.434Z" class="cls-5" style="fill:url(#e)" fill=""></path><path d="M227.527 54.726c-1.866-5.13-9.4-5.114-11.276 0l-36.397 100a6 6 0 1 0 11.276 4.104l11.688-32.11h38.142l11.687 32.11a6 6 0 1 0 11.277-4.104Zm-20.342 59.993 14.704-40.398 14.703 40.398Z" class="cls-6" style="fill:url(#f)" fill=""></path><path d="M166.36 62.778a6 6 0 0 0 0-12h-43.928a9.267 9.267 0 0 0-9.257 9.257v93.486a9.267 9.267 0 0 0 9.257 9.257h43.928a6 6 0 0 0 0-12h-41.185v-38h41.185a6 6 0 0 0 0-12h-41.185v-38Z" class="cls-7" style="fill:url(#g)" fill=""></path><path d="M297.765 150.74a18.462 18.462 0 0 1-15.079-9.722 6 6 0 0 0-10.538 5.74 30.403 30.403 0 0 0 24.86 15.958c.645.04 1.284.06 1.922.06a31.076 31.076 0 0 0 3.698-61.873 30.598 30.598 0 0 0-2.906-.2 19.057 19.057 0 0 1 3.595-37.887 18.33 18.33 0 0 1 12.267 5.828 6 6 0 0 0 8.765-8.196 30.287 30.287 0 0 0-20.276-9.608 31.057 31.057 0 0 0-5.64 61.802 29.102 29.102 0 0 0 2.923.2 19.062 19.062 0 0 1-3.59 37.897Z" class="cls-8" style="fill:url(#h)" fill=""></path><path d="M366.663 162.778a6 6 0 0 0 6-6v-54.764l25.306-42.147a6 6 0 0 0-10.288-6.178l-21.018 35.005-21.019-35.005a6 6 0 1 0-10.288 6.178l25.307 42.147v54.764a6 6 0 0 0 6 6Z" class="cls-9" style="fill:url(#i)" fill=""></path><path d="M240.498 256c0 30.878 22.495 56 50.146 56s50.146-25.122 50.146-56-22.496-56-50.146-56-50.147 25.122-50.147 56Zm50.146-44c21.033 0 38.146 19.738 38.146 44s-17.113 44-38.146 44-38.146-19.738-38.146-44 17.112-44 38.146-44Z" class="cls-10" style="fill:url(#j)" fill=""></path><path d="M171.21 206a6 6 0 0 0 6 6h22.208v94a6 6 0 0 0 12 0v-94h22.208a6 6 0 0 0 0-12H177.21a6 6 0 0 0-6 6Z" class="cls-11" style="fill:url(#k)" fill=""></path></g></g></svg>