<svg xmlns="http://www.w3.org/2000/svg" version="1.1" xmlns:xlink="http://www.w3.org/1999/xlink" xmlns:svgjs="http://svgjs.com/svgjs" width="512" height="512" x="0" y="0" viewBox="0 0 128 128" style="enable-background:new 0 0 512 512" xml:space="preserve" class=""><g transform="matrix(1.0000000000000009,0,0,1.0000000000000009,-8.526512829121202e-14,-6.394884621840902e-14)"><path d="m74.7 71.9-3.3 3.3c1.3-2.7.4-6-2.1-7.6-2.8-1.8-6.6-1.1-8.4 1.7l-12 18.2-5 .4 8.6-12.7c2-3 1.2-7-1.7-9-2.6-1.8-6-1.4-8.2.8L5.1 104.4c-.7.7-.7 1.8 0 2.5s1.8.7 2.5 0L45 69.5c1.2-1.1 3-1.1 4.2 0 1 1 1.2 2.6.4 3.8L38.8 89c-.8 1.2.1 2.8 1.6 2.7l20.4-1.5c.3 0 .8-.2 1.1-.5l15.3-15.2c1-1 2.6-1 3.6 0s1 2.6 0 3.6l-18 18c-1.4 1.4-3 2.5-4.8 3.2l-26.6 11.1c-.2.1-.4.2-.6.4l-9.7 9.7c-.7.7-.7 1.8 0 2.5s1.8.7 2.5 0l9.4-9.4 26.3-10.9c2.2-.9 4.2-2.3 5.9-4l18.1-18.1c2.4-2.4 2.4-6.2 0-8.6s-6.2-2.4-8.6-.1zm-10.9-.6c.8-1.2 2.4-1.5 3.6-.7s1.5 2.4.7 3.6l-8.3 12.6-6.5.5zM122.9 21.1c-.7-.7-1.8-.7-2.5 0L83 58.5c-1.2 1.1-3 1.1-4.2 0-1-1-1.2-2.6-.4-3.8L89.2 39c.8-1.2-.1-2.8-1.6-2.7l-20.4 1.6c-.3 0-.8.2-1.1.5L50.8 53.6c-1 1-2.6 1-3.6 0s-1-2.6 0-3.6l18.1-18.1c1.4-1.4 3-2.5 4.8-3.2l26.6-11.1c.2-.1.4-.2.6-.4l9.7-9.7c.7-.7.7-1.8 0-2.5s-1.8-.7-2.5 0L95 14.5 68.7 25.4c-2.2.9-4.2 2.3-5.9 4L44.7 47.5c-2.4 2.4-2.4 6.2 0 8.6s6.2 2.4 8.6 0l3.3-3.3c-1.4 3-.1 6.7 2.9 8.1 2.7 1.3 6 .4 7.7-2.1l12-18.2 5-.4-8.6 12.7c-2 3-1.2 7 1.7 9 2.6 1.8 6 1.4 8.2-.8l37.4-37.4c.7-.8.7-1.9 0-2.6zM64.2 56.7c-.8 1.2-2.4 1.5-3.6.7s-1.5-2.4-.7-3.6l8.3-12.6 6.5-.5z" fill="#7219c0" data-original="#000000"></path></g></svg>