<svg xmlns="http://www.w3.org/2000/svg" version="1.1" xmlns:xlink="http://www.w3.org/1999/xlink" xmlns:svgjs="http://svgjs.com/svgjs" width="512" height="512" x="0" y="0" viewBox="0 0 64 64" style="enable-background:new 0 0 512 512" xml:space="preserve" class=""><g transform="matrix(0.7000000000000001,0,0,0.7000000000000001,9.599849939346317,9.600133574008943)"><path d="M34.283 55.021a.751.751 0 0 0 .938.5l7-2.155a.75.75 0 1 0-.442-1.433l-7 2.154a.75.75 0 0 0-.496.934zM41.779 55.067l-7 2.155a.75.75 0 1 0 .442 1.433l7-2.154a.75.75 0 0 0-.442-1.434zM54.665 12.421a.75.75 0 0 0 .67 0C57.943 11.117 60.75 8.4 60.75 5.5a3.344 3.344 0 0 0-1.992-3.011A3.675 3.675 0 0 0 55 3.254a3.679 3.679 0 0 0-3.758-.763A3.344 3.344 0 0 0 49.25 5.5c0 2.9 2.807 5.617 5.415 6.921zm-2.841-8.548a1.581 1.581 0 0 1 .615-.123 3.08 3.08 0 0 1 2.038 1.039.75.75 0 0 0 1.046 0c.939-.916 1.879-1.239 2.653-.916A1.833 1.833 0 0 1 59.25 5.5c0 2.051-2.086 4.214-4.25 5.4-2.164-1.187-4.25-3.35-4.25-5.4a1.833 1.833 0 0 1 1.074-1.627zM10.665 13.921a.75.75 0 0 0 .67 0c3.571-1.785 7.415-5.494 7.415-9.421A4.376 4.376 0 0 0 16.145.563C14.547-.11 12.7.319 11 1.742 9.3.32 7.453-.112 5.855.563A4.376 4.376 0 0 0 3.25 4.5c0 3.927 3.844 7.636 7.415 9.421zM6.437 1.945a2.509 2.509 0 0 1 .979-.2 4.594 4.594 0 0 1 3.061 1.545.75.75 0 0 0 1.046 0c1.407-1.373 2.841-1.85 4.039-1.345A2.839 2.839 0 0 1 17.25 4.5c0 3.033-3.091 6.215-6.25 7.9-3.159-1.682-6.25-4.864-6.25-7.9a2.84 2.84 0 0 1 1.687-2.555z" fill="#7219c0" data-original="#000000" class=""></path><path d="m58.9 27 3.723-5.584a.75.75 0 0 0-.4-1.133l-17.659-5.432a10.345 10.345 0 0 0 .186-1.846 6.951 6.951 0 0 0-4.139-6.26C39.029 6.078 35.856 5.524 32 8.979c-3.856-3.455-7.028-2.9-8.611-2.234a6.951 6.951 0 0 0-4.139 6.26 10.345 10.345 0 0 0 .186 1.846L1.78 20.283a.75.75 0 0 0-.4 1.133L5.1 27l-3.724 5.584a.75.75 0 0 0 .4 1.133l3.47 1.067V55a.751.751 0 0 0 .529.717l26 8a.757.757 0 0 0 .442 0l26-8A.751.751 0 0 0 58.75 55V34.784l3.47-1.067a.75.75 0 0 0 .4-1.133zm1.917-5.579-3.132 4.7-16.1-4.954a16.121 16.121 0 0 0 2.615-4.858zM55.45 27l-22.7 6.984v-5.533a28.111 28.111 0 0 0 7.8-6.037zM3.182 21.421 19.8 16.309a16.121 16.121 0 0 0 2.617 4.856l-16.1 4.954zm0 11.158 3.132-4.7 24.5 7.54-3.131 4.7zM31.25 61.984l-24.5-7.538v-19.2l21.029 6.47a.75.75 0 0 0 .845-.3l2.626-3.939zm0-28L8.55 27l14.9-4.586a28.111 28.111 0 0 0 7.8 6.037zm.75-6.826c-5.646-2.934-11.25-8.658-11.25-14.153a5.415 5.415 0 0 1 3.221-4.878 4.83 4.83 0 0 1 1.887-.38c1.792 0 3.73.952 5.619 2.8a.75.75 0 0 0 1.046 0c2.575-2.514 5.242-3.367 7.506-2.415a5.415 5.415 0 0 1 3.221 4.878c0 5.49-5.604 11.214-11.25 14.148zm25.25 27.288-24.5 7.538V37.477l2.626 3.939a.75.75 0 0 0 .845.3l21.029-6.47zM36.313 40.119l-3.131-4.7 24.5-7.54 3.132 4.7z" fill="#7219c0" data-original="#000000" class=""></path></g></svg>