<svg enable-background="new 0 0 512 512" height="512" viewBox="0 0 512 512" width="512" xmlns="http://www.w3.org/2000/svg" xmlns:xlink="http://www.w3.org/1999/xlink"><linearGradient id="SVGID_1_" gradientUnits="userSpaceOnUse" x1="3.404" x2="496.275" y1="507.609" y2="14.738"><stop offset="0" stop-color="#f803fe"/><stop offset="1" stop-color="#0ecbde"/></linearGradient><g id="_x31_6_Rocket"><path d="m430.334 6.595c-68.131 19.749-133.283 52.788-183.245 102.75-19.612 19.61-35.949 41.063-49.703 62.926-63.348-13.206-128.529 22.819-150.215 84.204-2.213 6.266 3.8 12.361 10.128 10.175 30.973-10.78 64.373-7.892 92.713 7.526-7.132 21.597-12.042 41.057-15.286 56.409-.501 2.38-.687 4.777-.581 7.141-2.375-.107-4.785.078-7.178.583-9.214 1.96-18.868 4.302-28.7 6.954-5.907 1.609-7.875 9.01-3.551 13.325l57.715 57.719c4.31 4.321 11.73 2.359 13.321-3.555 2.691-9.98 5.029-19.642 6.95-28.72.51-2.411.69-4.84.576-7.236.809.037 3.023.376 7.18-.496 15.344-3.249 34.795-8.164 56.381-15.3 15.41 28.419 18.311 61.794 7.549 92.653-2.187 6.266 3.852 12.356 10.171 10.136 61.412-21.664 97.398-86.817 84.148-150.169 21.869-13.759 43.328-30.102 62.943-49.717 54.018-54.012 88.957-126.832 107.722-201.411 8.576-34.086-16.597-73.922-79.038-55.897zm63.59 52.009c-5.127 20.365-12.073 42.273-20.213 62.83l-84.133-84.129c16.08-6.368 32.609-11.878 48.323-16.307 44.937-12.708 62.028 13.726 56.023 37.606zm-425.287 188.404c22.639-43.159 71.459-67.921 120.039-60.263-14.077 24.562-24.994 49.235-33.352 72.123-26.724-13.846-57.182-18.047-86.687-11.86zm88.477 133.727c-.984 4.667-2.085 9.49-3.29 14.438l-37.976-37.977c4.905-1.198 9.727-2.303 14.418-3.298 4.146-.863 8.401.405 11.408 3.407l12.034 12.034c3.005 3.01 4.281 7.265 3.406 11.396zm106.921 61.593c6.15-29.406 1.949-59.859-11.897-86.64 22.882-8.363 47.549-19.283 72.106-33.36 7.703 48.583-17.032 97.381-60.209 120zm126.352-189.688c-69.458 69.458-163.407 97.524-213.231 108.072-4.123.902-8.386-.389-11.392-3.407-.004 0-.004 0-.004 0l-12.034-12.034c-3.007-3.01-4.282-7.273-3.411-11.396 10.525-49.824 38.56-143.785 108.037-213.266 35.058-35.056 76.172-59.556 115.302-76.701l93.448 93.441c-17.151 39.124-41.656 80.232-76.715 115.291zm-379.065 256.898c8.281-2.551 81.367-25.398 97.501-41.539 18.014-18.014 18.345-47.394-.093-65.825-18.165-18.165-47.545-18.19-65.735 0-16.137 16.126-39.066 89.123-41.625 97.392-1.897 6.116 3.824 11.829 9.952 9.972zm42.936-96.101c11.945-11.945 31.243-11.961 43.204 0 12.229 12.229 11.867 31.528.097 43.297-8.541 8.541-46.677 23.057-76.245 32.866 9.844-29.528 24.399-67.621 32.944-76.163zm240.865-270.806c-20.163 20.163-20.163 52.966 0 73.129 20.167 20.175 53.045 20.321 73.242.109 20.253-20.253 20.25-53.097 0-73.347-20.159-20.17-53.013-20.108-73.242.109zm61.978 61.974c-13.948 13.948-36.701 13.901-50.714-.109-13.951-13.948-13.951-36.654 0-50.602 14.011-14.004 36.756-14.067 50.714-.109 13.995 13.996 14.049 36.772 0 50.82z" fill="url(#SVGID_1_)"/></g></svg>