<svg xmlns="http://www.w3.org/2000/svg" version="1.1" xmlns:xlink="http://www.w3.org/1999/xlink" xmlns:svgjs="http://svgjs.com/svgjs" width="512" height="512" x="0" y="0" viewBox="0 0 512 512" style="enable-background:new 0 0 512 512" xml:space="preserve"><g><path d="M432.913 80.541 257.649 43.605a8.007 8.007 0 0 0-3.299 0L79.087 80.541a8.001 8.001 0 0 0-6.351 7.828v171.009c0 48.228 19.497 96.794 54.9 136.753 34.272 38.683 80.607 65.049 127.124 72.338a8.029 8.029 0 0 0 2.476 0c46.517-7.289 92.852-33.655 127.125-72.338 35.403-39.959 54.9-88.526 54.9-136.753V88.37a7.998 7.998 0 0 0-6.348-7.829zm-9.65 178.838c0 90.05-76.467 178.172-167.264 193.086-90.795-14.914-167.262-103.036-167.262-193.086V94.859L256 59.609l167.264 35.25v164.52zM254.35 90.452l-129.423 27.276a8.001 8.001 0 0 0-6.351 7.828v133.823c0 35.728 14.531 72.492 40.916 103.52 25.518 30.008 60.084 51.473 94.837 58.891a7.968 7.968 0 0 0 3.34 0c34.753-7.418 69.32-28.883 94.838-58.891 26.386-31.028 40.917-67.792 40.917-103.52V125.556a8 8 0 0 0-6.351-7.828L257.649 90.452a7.973 7.973 0 0 0-3.299 0zm123.074 41.593v127.333c0 64.766-55.434 131.398-121.425 146.396-65.99-14.997-121.423-81.629-121.423-146.396V132.045L256 106.455zM235.561 261.981l76.099-76.099a8 8 0 0 1 11.314 11.313l-81.756 81.755a7.978 7.978 0 0 1-5.657 2.343 7.974 7.974 0 0 1-5.657-2.343l-40.878-40.878a8 8 0 1 1 11.314-11.313z" fill="#7219c0" data-original="#000000"></path></g></svg>