<?xml version="1.0" encoding="utf-8"?>
<!-- Generator: Adobe Illustrator 25.0.0, SVG Export Plug-In . SVG Version: 6.00 Build 0)  -->
<svg version="1.1" id="Layer_1" xmlns:svgjs="http://svgjs.com/svgjs"
	 xmlns="http://www.w3.org/2000/svg" xmlns:xlink="http://www.w3.org/1999/xlink" x="0px" y="0px" viewBox="0 0 512 512"
	 style="enable-background:new 0 0 512 512;" xml:space="preserve">
<style type="text/css">
	.st0{fill:#F6AC00;}
</style>
<g>
	<path class="st0" d="M413.1,39.4h-19.1V20.1c0-11-9-20-20-20s-20,9-20,20v19.3H157.9V20.1c0-11-9-20-20-20c-11,0-20,9-20,20v19.3
		H98.9C44.3,39.4,0,83.8,0,138.3V413c0,54.5,44.3,98.9,98.9,98.9h314.3c54.5,0,98.8-44.3,98.8-98.9V138.3
		C512,83.8,467.7,39.4,413.1,39.4L413.1,39.4z M98.9,79.4h19.1v39c0,11,9,20,20,20c11,0,20-9,20-20v-39h196.1v39c0,11,9,20,20,20
		s20-9,20-20v-39h19.1c32.5,0,58.9,26.4,58.9,58.9v19.1H40v-19.1C40,105.8,66.4,79.4,98.9,79.4L98.9,79.4z M413.1,471.9H98.9
		C66.4,471.9,40,445.5,40,413V197.4h432V413C472,445.5,445.6,471.9,413.1,471.9z M177.6,276c0,11-8.9,20-20,20h-39.3
		c-11,0-20-9-20-20s9-20,20-20h39.3C168.6,256,177.6,264.9,177.6,276z M413.7,276c0,11-9,20-20,20h-39.3c-11,0-20-9-20-20
		s9-20,20-20h39.3C404.8,256,413.7,264.9,413.7,276z M295.5,276c0,11-9,20-20,20h-39.3c-11,0-20-9-20-20s9-20,20-20h39.3
		C286.6,256,295.5,264.9,295.5,276z M177.6,393.9c0,11-8.9,20-20,20h-39.3c-11,0-20-9-20-20c0-11,9-20,20-20h39.3
		C168.6,373.9,177.6,382.9,177.6,393.9z M413.7,393.9c0,11-9,20-20,20h-39.3c-11,0-20-9-20-20c0-11,9-20,20-20h39.3
		C404.8,373.9,413.7,382.9,413.7,393.9z M295.5,393.9c0,11-9,20-20,20h-39.3c-11,0-20-9-20-20c0-11,9-20,20-20h39.3
		C286.6,373.9,295.5,382.9,295.5,393.9z"/>
</g>
</svg>
