<?xml version="1.0" encoding="utf-8"?>
<!-- Generator: Adobe Illustrator 25.0.0, SVG Export Plug-In . SVG Version: 6.00 Build 0)  -->
<svg version="1.1" id="Layer_1" xmlns:svgjs="http://svgjs.com/svgjs"
	 xmlns="http://www.w3.org/2000/svg" xmlns:xlink="http://www.w3.org/1999/xlink" x="0px" y="0px" viewBox="0 0 512 512"
	 style="enable-background:new 0 0 512 512;" xml:space="preserve">
<style type="text/css">
	.st0{fill:#F6AC00;}
</style>
<g>
	<path class="st0" d="M256,32C132.3,32,32,132.3,32,256s100.3,224,224,224s224-100.3,224-224C479.9,132.3,379.7,32.1,256,32z
		 M256,464c-114.9,0-208-93.1-208-208S141.1,48,256,48s208,93.1,208,208C463.9,370.8,370.8,463.9,256,464z M248,80V64
		c0-4.4,3.6-8,8-8s8,3.6,8,8v16c0,4.4-3.6,8-8,8S248,84.4,248,80z M456,256c0,4.4-3.6,8-8,8h-16c-4.4,0-8-3.6-8-8s3.6-8,8-8h16
		C452.4,248,456,251.6,456,256z M264,432v16c0,4.4-3.6,8-8,8s-8-3.6-8-8v-16c0-4.4,3.6-8,8-8S264,427.6,264,432z M88,256
		c0,4.4-3.6,8-8,8H64c-4.4,0-8-3.6-8-8s3.6-8,8-8h16C84.4,248,88,251.6,88,256z M368.1,187.8c2.3,3.8,1.1,8.7-2.7,11c0,0,0,0,0,0
		l-105.2,64c-3.8,2.3-8.7,1.1-11-2.7c-0.8-1.2-1.2-2.7-1.2-4.1V116.8c0-4.4,3.6-8,8-8s8,3.6,8,8v124.9l93.1-56.6
		C360.8,182.9,365.8,184.1,368.1,187.8z"/>
</g>
</svg>
