<?xml version="1.0" encoding="utf-8"?>
<!-- Generator: Adobe Illustrator 25.0.0, SVG Export Plug-In . SVG Version: 6.00 Build 0)  -->
<svg version="1.1" id="Layer_1" xmlns:svgjs="http://svgjs.com/svgjs"
	 xmlns="http://www.w3.org/2000/svg" xmlns:xlink="http://www.w3.org/1999/xlink" x="0px" y="0px" viewBox="0 0 512 512"
	 style="enable-background:new 0 0 512 512;" xml:space="preserve">
<style type="text/css">
	.st0{fill:#F6AC00;}
</style>
<g>
	<path class="st0" d="M256,0C161.9,0,85.3,76.6,85.3,170.7c0,28.2,7.1,56.3,20.5,81.1l140.8,254.7c1.9,3.4,5.4,5.5,9.3,5.5
		c3.9,0,7.5-2.1,9.3-5.5l140.9-254.8c13.4-24.8,20.4-52.8,20.4-81C426.7,76.6,350.1,0,256,0z M387.5,241.4L256,479.3L124.5,241.5
		c-11.7-21.6-17.9-46.2-17.9-70.9c0-82.3,67-149.3,149.3-149.3s149.3,67,149.3,149.3C405.3,195.4,399.2,219.9,387.5,241.4z"/>
	<path class="st0" d="M256,85.3c-47.1,0-85.3,38.3-85.3,85.3c0,47.1,38.3,85.3,85.3,85.3s85.3-38.3,85.3-85.3S303.1,85.3,256,85.3z
		 M256,234.7c-35.3,0-64-28.7-64-64s28.7-64,64-64s64,28.7,64,64C320,206,291.3,234.7,256,234.7z"/>
</g>
</svg>
