<?xml version="1.0" encoding="utf-8"?>
<!-- Generator: Adobe Illustrator 25.0.0, SVG Export Plug-In . SVG Version: 6.00 Build 0)  -->
<svg version="1.1" id="Layer_1" xmlns:svgjs="http://svgjs.com/svgjs"
	 xmlns="http://www.w3.org/2000/svg" xmlns:xlink="http://www.w3.org/1999/xlink" x="0px" y="0px" viewBox="0 0 512 512"
	 style="enable-background:new 0 0 512 512;" xml:space="preserve">
<style type="text/css">
	.st0{fill:#F6AC00;}
</style>
<g>
	<path class="st0" d="M448,135H64c-17.7,0-32,14.3-32,32v27.3c0,4.4,3.6,8,8,8c29.7,0,53.8,24.1,53.8,53.8S69.7,309.8,40,309.8
		c-4.4,0-8,3.6-8,8V345c0,17.7,14.3,32,32,32h384c17.7,0,32-14.3,32-32V167C480,149.3,465.7,135,448,135z M464,345
		c0,8.8-7.2,16-16,16H181.7c-0.4-7.1,2.7-19.6-8-20c-4.4,0-8,3.6-8,8v12H64c-8.8,0-16-7.2-16-16v-19.7c1.5-0.2,3-0.5,4.5-0.7
		c37.9-6.8,63.1-43.1,56.2-81c-5.5-30.3-30.1-53.4-60.7-56.9V167c0-8.8,7.2-16,16-16h101.7v12c0,4.4,3.6,8,8,8s8-3.6,8-8v-12H448
		c8.8,0,16,7.2,16,16V345z"/>
	<path class="st0" d="M173.7,266.6c-4.4,0-8,3.6-8,8v37.2c0,4.4,3.6,8,8,8s8-3.6,8-8v-37.2C181.7,270.2,178.2,266.6,173.7,266.6z
		 M173.7,192.2c-4.4,0-8,3.6-8,8v37.2c0,4.4,3.6,8,8,8s8-3.6,8-8v-37.2C181.7,195.8,178.2,192.2,173.7,192.2z M385.6,193.2
		c-3.1-3.1-8.2-3.1-11.3,0L260.1,307.5c-3.2,3.1-3.3,8.1-0.2,11.3c3.1,3.2,8.1,3.3,11.3,0.2c0.1-0.1,0.1-0.1,0.2-0.2l114.2-114.2
		C388.8,201.4,388.8,196.4,385.6,193.2L385.6,193.2z M287.9,253.2c17.8-0.4,31.9-15.1,31.5-32.9c-0.4-17.2-14.3-31.1-31.5-31.5
		c-17.8,0.4-31.9,15.1-31.5,32.9C256.8,239,270.7,252.9,287.9,253.2L287.9,253.2z M287.9,204.8c9,0.3,16,7.8,15.7,16.7
		c-0.3,8.6-7.1,15.4-15.7,15.7c-9-0.3-16-7.8-15.7-16.7C272.5,212,279.3,205.1,287.9,204.8z M357.8,258.8
		c-17.8,0.4-31.9,15.1-31.5,32.9c0.4,17.2,14.3,31.1,31.5,31.5c17.8-0.4,31.9-15.1,31.5-32.9C389,273,375.1,259.1,357.8,258.8z
		 M357.8,307.2c-9-0.3-16-7.8-15.7-16.7c0.3-8.6,7.1-15.4,15.7-15.7c9,0.3,16,7.8,15.7,16.7C373.3,300,366.4,306.9,357.8,307.2z"/>
</g>
</svg>
