<?xml version="1.0" encoding="utf-8"?>
<!-- Generator: Adobe Illustrator 25.0.0, SVG Export Plug-In . SVG Version: 6.00 Build 0)  -->
<svg version="1.1" id="Layer_1" xmlns:svgjs="http://svgjs.com/svgjs"
	 xmlns="http://www.w3.org/2000/svg" xmlns:xlink="http://www.w3.org/1999/xlink" x="0px" y="0px" viewBox="0 0 512 512"
	 style="enable-background:new 0 0 512 512;" xml:space="preserve">
<style type="text/css">
	.st0{fill:#F6AC00;}
</style>
<g transform="matrix(-1,2.465190328815662e-32,2.465190328815662e-32,1,71.42602443695067,0)">
	<path class="st0" d="M-51.1,322.8h-29.1c-2,0-4-0.9-5.3-2.5c-11.4-14.1-25.2-26-40.8-35.2l-3.6-2c-29.8-16.6-63.7-35.3-67.2-79.1
		c-0.4-7-5-13.1-11.7-15.3l-1.7-0.5c-8.7-2.8-18.1,2-20.9,10.7c-0.3,0.8-0.5,1.7-0.6,2.6c-5.1,31.9-3,73.6,35.4,90.5
		c3.5,1.5,5.1,5.6,3.5,9.1c-1.1,2.5-3.6,4.1-6.3,4.1h-33c-3.8,0-6.9-3.1-6.9-6.9c0-3.8,3.1-6.9,6.9-6.9h9.7
		c-21.4-19.5-29.5-51.3-23-92.1c2.6-16.6,18.2-28,34.8-25.4c1.5,0.2,3,0.6,4.5,1.1l1.7,0.5c12.1,3.9,20.6,14.7,21.4,27.4
		c3,36.3,30.7,51.8,60.2,68.1l3.6,2c16.1,9.4,30.5,21.6,42.5,35.9h25.9c3.8,0,6.9,3.1,6.9,6.9S-47.2,322.7-51.1,322.8L-51.1,322.8z
		 M-92.4,496.5h-162.9c-3.8,0-6.9-3.1-6.9-6.9c0-3.8,3.1-6.9,6.9-6.9h162.9c8.8,0,17.6-1.4,26.1-4l13.1-4.2c3.6-1.1,7.5,0.9,8.7,4.5
		c1.1,3.6-0.9,7.5-4.5,8.7l-13.1,4.2C-71.9,494.9-82.1,496.5-92.4,496.5L-92.4,496.5z"/>
	<path class="st0" d="M16.9,503.5h-54c-11.6,0-20.9-9.4-20.9-20.9V312.4c0-11.6,9.4-20.9,20.9-20.9h54c11.6,0,20.9,9.4,20.9,20.9
		v170.1C37.8,494.1,28.5,503.5,16.9,503.5L16.9,503.5z M-37.1,305.3c-3.9,0-7.1,3.2-7.1,7.1v170.1c0,3.9,3.2,7.1,7.1,7.1h54
		c3.9,0,7.1-3.2,7.1-7.1V312.4c0-3.9-3.2-7.1-7.1-7.1H-37.1z M-235.9,353.1h-76.9c-17-0.3-30.6-14.3-30.4-31.3
		c0.2-16.7,13.7-30.1,30.4-30.4h76.9c17,0.3,30.6,14.3,30.4,31.3C-205.8,339.4-219.2,352.9-235.9,353.1L-235.9,353.1z M-312.8,305.3
		c-9.4,0.2-16.8,7.9-16.6,17.3c0.2,9.1,7.5,16.4,16.6,16.6h76.9c9.4-0.2,16.8-7.9,16.6-17.3c-0.2-9.1-7.5-16.4-16.6-16.6H-312.8z"/>
	<path class="st0" d="M-227.5,400.9h-74.4c-17-0.3-30.6-14.3-30.4-31.3c0.2-16.7,13.7-30.1,30.4-30.4h74.4c17-0.3,31,13.3,31.3,30.4
		s-13.3,31-30.4,31.3C-226.9,400.9-227.2,400.9-227.5,400.9z M-301.9,353.1c-9.4,0.2-16.8,7.9-16.6,17.3c0.2,9.1,7.5,16.4,16.6,16.6
		h74.4c9.4,0.2,17.1-7.3,17.3-16.6c0.2-9.4-7.3-17.1-16.6-17.3c-0.2,0-0.5,0-0.7,0H-301.9z"/>
	<path class="st0" d="M-222.6,448.7h-69.1c-17,0.3-31-13.3-31.3-30.4c-0.3-17,13.3-31,30.4-31.3c0.3,0,0.6,0,0.9,0h69.1
		c17-0.3,31,13.3,31.3,30.4s-13.3,31-30.4,31.3C-222,448.7-222.3,448.7-222.6,448.7z M-291.7,400.9c-9.4-0.2-17.1,7.3-17.3,16.6
		s7.3,17.1,16.6,17.3c0.2,0,0.5,0,0.7,0h69.1c9.4,0.2,17.1-7.3,17.3-16.6c0.2-9.4-7.3-17.1-16.6-17.3c-0.2,0-0.5,0-0.7,0H-291.7z"/>
	<path class="st0" d="M-219.3,496.5h-59.2c-17,0.3-31-13.3-31.3-30.4c-0.3-17,13.3-31,30.4-31.3c0.3,0,0.6,0,0.9,0h59.2
		c17,0.3,30.6,14.3,30.4,31.3C-189.2,482.8-202.6,496.2-219.3,496.5z M-278.5,448.7c-9.4-0.2-17.1,7.3-17.3,16.6
		c-0.2,9.4,7.3,17.1,16.6,17.3c0.2,0,0.5,0,0.7,0h59.2c9.4-0.2,16.8-7.9,16.6-17.3c-0.2-9.1-7.5-16.4-16.6-16.6H-278.5z
		 M-361.4,163.7c-3.8,0-6.9-3.1-6.9-6.9c0-0.4,0-0.8,0.1-1.2l5.9-34.1l-24.8-24.2c-2.7-2.7-2.7-7.1-0.1-9.8c1-1.1,2.4-1.8,3.9-2
		l34.3-5l15.3-31.1c2-3.4,6.4-4.6,9.9-2.6c1.1,0.6,1.9,1.5,2.6,2.6l15.3,31.1l34.3,5c3.8,0.5,6.4,4.1,5.9,7.8c-0.2,1.5-0.9,2.9-2,4
		l-24.8,24.2l5.9,34.1c0.6,3.8-1.9,7.3-5.7,8c-1.5,0.3-3,0-4.4-0.7l-30.7-16.1l-30.7,16.1C-359.1,163.4-360.2,163.7-361.4,163.7
		L-361.4,163.7z M-327.5,132c1.1,0,2.2,0.3,3.2,0.8l21.4,11.3l-4.1-23.9c-0.4-2.2,0.4-4.5,2-6.1l17.4-16.9l-24-3.5
		c-2.3-0.3-4.2-1.7-5.2-3.8l-10.7-21.8l-10.7,21.7c-1,2-3,3.5-5.2,3.8l-24,3.5l17.4,16.9c1.6,1.6,2.4,3.9,2,6.1l-4.1,23.9l21.4-11.3
		C-329.7,132.3-328.6,132-327.5,132L-327.5,132z M-11.1,163.7c-1.1,0-2.2-0.3-3.2-0.8L-45,146.8l-30.7,16.1
		c-3.4,1.8-7.6,0.5-9.3-2.9c-0.7-1.3-1-2.9-0.7-4.4l5.9-34.1l-24.8-24.2c-2.7-2.7-2.8-7-0.1-9.8c1.1-1.1,2.5-1.8,4-2l34.3-5
		l15.3-31.1c2-3.4,6.4-4.6,9.9-2.6c1.1,0.6,1.9,1.5,2.6,2.6l15.3,31.1l34.3,5c3.8,0.5,6.4,4.1,5.9,7.8c-0.2,1.5-0.9,2.9-2,4
		l-24.8,24.2l5.9,34.1c0.6,3.8-1.9,7.3-5.7,8C-10.3,163.6-10.7,163.7-11.1,163.7L-11.1,163.7z M-45,132c1.1,0,2.2,0.3,3.2,0.8
		l21.4,11.3l-4.1-23.9c-0.4-2.2,0.4-4.5,2-6.1l17.4-16.9l-24-3.5c-2.3-0.3-4.2-1.7-5.2-3.8L-45,68.1l-10.7,21.7c-1,2-3,3.5-5.2,3.8
		l-24,3.5l17.4,16.9c1.6,1.6,2.4,3.9,2,6.1l-4.1,23.9l21.4-11.3C-47.2,132.3-46.1,132-45,132L-45,132z M-152.4,137.2
		c-1.1,0-2.2-0.3-3.2-0.8l-30.7-16.1l-30.7,16.1c-3.4,1.8-7.6,0.5-9.3-2.9c-0.7-1.3-1-2.9-0.7-4.4l5.9-34.1l-24.8-24.2
		c-2.7-2.7-2.8-7-0.1-9.8c1.1-1.1,2.5-1.8,4-2l34.3-5l15.3-31.1c2-3.4,6.4-4.6,9.9-2.5c1,0.6,1.9,1.5,2.5,2.5l15.3,31.1l34.3,5
		c3.8,0.6,6.4,4.1,5.8,7.8c-0.2,1.5-0.9,2.9-2,4L-151.4,95l5.9,34.1c0.6,3.8-1.9,7.3-5.7,8C-151.6,137.2-152,137.2-152.4,137.2
		L-152.4,137.2z M-186.3,105.6c1.1,0,2.2,0.3,3.2,0.8l21.4,11.3l-4.1-23.9c-0.4-2.2,0.4-4.5,2-6.1l17.4-16.9l-24-3.5
		c-2.3-0.3-4.2-1.7-5.2-3.8l-10.7-21.7L-197,63.4c-1,2-3,3.5-5.2,3.8l-24,3.5l17.4,16.9c1.6,1.6,2.4,3.9,2,6.1l-4.1,23.9l21.4-11.3
		C-188.5,105.8-187.4,105.6-186.3,105.6L-186.3,105.6z"/>
</g>
</svg>
