<?xml version="1.0" encoding="utf-8"?>
<!-- Generator: Adobe Illustrator 25.0.0, SVG Export Plug-In . SVG Version: 6.00 Build 0)  -->
<svg version="1.1" id="Layer_1" xmlns="http://www.w3.org/2000/svg" xmlns:xlink="http://www.w3.org/1999/xlink" x="0px" y="0px"
	 viewBox="0 0 512 512" style="enable-background:new 0 0 512 512;" xml:space="preserve">
<style type="text/css">
	.st0{fill:#F6AC00;}
</style>
<g>
	<path class="st0" d="M469.3,231.5v-52.3c0-24.2-19.6-43.9-43.8-43.9h-0.1h-28.6L163.2,38c-16.5-6.9-35.4,0.8-42.4,17.2
		c-0.1,0.2-0.2,0.5-0.3,0.7l-31.8,79.4H65.3c-24.2,0-43.9,19.6-43.9,43.8v0.1v253.4c0,24.2,19.6,43.9,43.8,43.9h0.1h360.1
		c24.2,0,43.9-19.6,43.9-43.8v-0.1v-52.3c11.9-0.4,21.3-10.1,21.3-22v-105C490.6,241.6,481.2,231.9,469.3,231.5L469.3,231.5z
		 M140.4,63.8c1-2.8,3.2-5.1,6-6.2c2.7-1.1,5.8-1.1,8.5,0l186.5,77.7h-51.6l-126.3-42c-5.4-1.9-11.4,0.8-13.4,6.2l-13.9,35.8h-24.3
		L140.4,63.8z M222.3,135.3h-63.1l7-18.6L222.3,135.3z M448,432.6c0,12.5-10.1,22.6-22.6,22.6H65.3c-12.5,0-22.6-10.1-22.6-22.6
		V179.2c0.1-12.5,10.2-22.5,22.6-22.6h360.1c12.5,0.1,22.5,10.2,22.6,22.6v52.1h-96c-41.2,0-74.7,33.4-74.7,74.7
		s33.4,74.7,74.7,74.7h96L448,432.6L448,432.6z M469.3,358.4c0,0.5-0.4,0.8-0.9,0.9H352c-29.5,0-53.3-23.9-53.3-53.3
		c0-29.5,23.9-53.3,53.3-53.3l117.3,0.9V358.4z"/>
	<path class="st0" d="M352,273.9c-17.7,0-32,14.3-32,32s14.3,32,32,32s32-14.3,32-32C384,288.2,369.7,273.9,352,273.9z M352,316.6
		c-5.9,0-10.7-4.8-10.7-10.7c0-5.9,4.8-10.7,10.7-10.7c5.9,0,10.7,4.8,10.7,10.7C362.7,311.8,357.9,316.6,352,316.6z"/>
	<path class="st0" d="M149.3,209.9c0,5.9-4.8,10.7-10.7,10.7H96c-5.9,0-10.7-4.8-10.7-10.7s4.8-10.7,10.7-10.7h42.7
		C144.6,199.3,149.3,204,149.3,209.9z"/>
	<path class="st0" d="M192,252.6c0,5.9-4.8,10.7-10.7,10.7H96c-5.9,0-10.7-4.8-10.7-10.7c0-5.9,4.8-10.7,10.7-10.7h85.3
		C187.2,241.9,192,246.7,192,252.6z"/>
</g>
</svg>
